<svg xmlns="http://www.w3.org/2000/svg" viewBox="0 0 300 300"><path d="M150 74.7l-68.3 50.7 2.6 84.9 45.7-32.4 20 36.4 19.3-36.9 1.3-2.4-1.6 2.2-17.3-12.3-2-24.2-1.6 24.6-17.7 12.6-1.6-2.2-1.3-2.4 15.4-10.9 3.9-57.5 2.7-6.2 2.7 6.1h-.5.5L157 162l15 10.6-2.5 4.8 46.5 33 2.6-84.9L150 74.7zm-37.8 70.8l15.1 27.6-38 27-2.1-72.1 57-42.3-32 59.8zM212.8 128l-2.2 72.1-38.9-27.6 14.5-27.8-31-59.2 57.6 42.5z"/><path d="M150 6.9C71.1 6.9 6.9 71.1 6.9 150c0 78.9 64.2 143.1 143.1 143.1 78.9 0 143.1-64.2 143.1-143.1C293.1 71.1 228.9 6.9 150 6.9zm0 275.5C77 282.4 17.6 223 17.6 150S77 17.6 150 17.6 282.4 77 282.4 150 223 282.4 150 282.4z"/></svg>