<?xml version="1.0" encoding="utf-8"?>
<!-- Generator: Adobe Illustrator 19.2.0, SVG Export Plug-In . SVG Version: 6.00 Build 0)  -->
<svg version="1.1" id="Layer_1" xmlns="http://www.w3.org/2000/svg" xmlns:xlink="http://www.w3.org/1999/xlink" x="0px" y="0px"
	 viewBox="0 0 300 300" style="enable-background:new 0 0 300 300;" xml:space="preserve">
<g>
	<path d="M150,74.7L150,74.7L150,74.7L150,74.7l-68.3,50.7l2.6,84.9l45.7-32.4l20,36.4l19.3-36.9l1.3-2.4l-1.6,2.2l-17.3-12.3
		l-2-24.2l-1.6,24.6l-17.7,12.6l-1.6-2.2l-1.3-2.4l15.4-10.9l3.9-57.5h0l2.7-6.2l2.7,6.1l-0.5,0l0.5,0l4.8,57.2l15,10.6l-2.5,4.8
		l46.5,33l2.6-84.9L150,74.7L150,74.7z M112.2,145.5l15.1,27.6l-38,27L87.2,128l57-42.3L112.2,145.5z M212.8,128l-2.2,72.1
		l-38.9-27.6l14.5-27.8l-31-59.2L212.8,128z"/>
	<path d="M150,6.9C71.1,6.9,6.9,71.1,6.9,150c0,78.9,64.2,143.1,143.1,143.1c78.9,0,143.1-64.2,143.1-143.1
		C293.1,71.1,228.9,6.9,150,6.9z M150,282.4C77,282.4,17.6,223,17.6,150C17.6,77,77,17.6,150,17.6c73,0,132.4,59.4,132.4,132.4
		C282.4,223,223,282.4,150,282.4z"/>
</g>
</svg>
